<svg width="6" height="11" viewBox="0 0 6 11" fill="none" xmlns="http://www.w3.org/2000/svg">
<path d="M0.220115 0.720115C0.0791757 0.861098 0 1.05229 0 1.25163C0 1.45098 0.0791757 1.64217 0.220115 1.78315L3.9415 5.50454L0.220115 9.22592C0.08317 9.36771 0.00739294 9.55762 0.00910585 9.75474C0.0108188 9.95186 0.0898844 10.1404 0.229273 10.2798C0.368662 10.4192 0.557222 10.4983 0.75434 10.5C0.951458 10.5017 1.14136 10.4259 1.28315 10.289L5.53606 6.03606C5.677 5.89508 5.75617 5.70389 5.75617 5.50454C5.75617 5.30519 5.677 5.114 5.53606 4.97302L1.28315 0.720115C1.14217 0.579176 0.950983 0.5 0.751634 0.5C0.552285 0.5 0.361098 0.579176 0.220115 0.720115Z" fill="#858585"/>
</svg>
