<svg width="9" height="15" viewBox="0 0 9 15" fill="none" xmlns="http://www.w3.org/2000/svg">
<path d="M0.695896 0.330173C0.484486 0.541647 0.365723 0.828428 0.365723 1.12745C0.365723 1.42648 0.484486 1.71326 0.695896 1.92473L6.27797 7.50681L0.695896 13.0889C0.490478 13.3016 0.376812 13.5864 0.379381 13.8821C0.381951 14.1778 0.500549 14.4606 0.709633 14.6697C0.918716 14.8788 1.20156 14.9974 1.49723 15C1.79291 15.0025 2.07777 14.8889 2.29045 14.6834L8.66981 8.30409C8.88122 8.09261 8.99998 7.80583 8.99998 7.50681C8.99998 7.20778 8.88122 6.921 8.66981 6.70953L2.29045 0.330173C2.07898 0.118763 1.7922 0 1.49317 0C1.19415 0 0.907369 0.118763 0.695896 0.330173Z" fill="#00598F"/>
</svg>
