<svg width="24" height="27" viewBox="0 0 24 27" fill="none" xmlns="http://www.w3.org/2000/svg">
<mask id="path-1-outside-1_309_9" maskUnits="userSpaceOnUse" x="0" y="0" width="24" height="27" fill="black">
<rect fill="white" width="24" height="27"/>
<path d="M22.7747 18.7948C22.0533 17.5684 21.2017 15.2453 21.2017 11.1415V10.3042C21.2017 5.20991 17.1094 1.03538 12.071 1H12C10.7896 0.999996 9.59114 1.23808 8.47319 1.70062C7.35525 2.16316 6.33981 2.84106 5.48504 3.69549C4.63028 4.54992 3.95298 5.5641 3.49195 6.67993C3.03091 7.79576 2.7952 8.99131 2.79831 10.1981V11.1415C2.79831 15.2453 1.94674 17.5684 1.22527 18.7948C1.07773 19.0472 1 19.3341 1 19.6262C1 19.9183 1.07773 20.2052 1.22527 20.4575C1.36752 20.7106 1.57547 20.9207 1.82729 21.066C2.0791 21.2112 2.36548 21.2862 2.65638 21.283H7.5056V21.5189C7.5056 22.7073 7.97912 23.8471 8.82198 24.6875C9.66484 25.5279 10.808 26 12 26C13.192 26 14.3352 25.5279 15.178 24.6875C16.0209 23.8471 16.4944 22.7073 16.4944 21.5189V21.283H21.3436C21.6345 21.2862 21.9209 21.2112 22.1727 21.066C22.4245 20.9207 22.6325 20.7106 22.7747 20.4575C22.9223 20.2052 23 19.9183 23 19.6262C23 19.3341 22.9223 19.0472 22.7747 18.7948ZM15.0751 21.5189C15.0751 22.332 14.7511 23.1119 14.1744 23.6869C13.5977 24.2619 12.8156 24.5849 12 24.5849C11.1844 24.5849 10.4023 24.2619 9.82557 23.6869C9.24887 23.1119 8.92489 22.332 8.92489 21.5189V21.283H15.0751V21.5189ZM21.5447 19.75C21.5263 19.787 21.4975 19.8179 21.4618 19.8389C21.4261 19.8598 21.385 19.8699 21.3436 19.8679H2.65638C2.61499 19.8699 2.57392 19.8598 2.53821 19.8389C2.50249 19.8179 2.47368 19.787 2.45532 19.75C2.43455 19.7141 2.42362 19.6735 2.42362 19.6321C2.42362 19.5907 2.43455 19.55 2.45532 19.5142C3.25958 18.1226 4.21759 15.5519 4.21759 11.1415V10.1981C4.21604 9.17758 4.4161 8.16674 4.80637 7.22329C5.19663 6.27985 5.76944 5.42229 6.49211 4.69957C7.21477 3.97685 8.07313 3.40313 9.01817 3.01115C9.96322 2.61918 10.9764 2.41664 12 2.41509H12.0591C16.317 2.43868 19.7824 5.98821 19.7824 10.3042V11.1415C19.7824 15.5519 20.7404 18.1226 21.5447 19.5142C21.5654 19.55 21.5764 19.5907 21.5764 19.6321C21.5764 19.6735 21.5654 19.7141 21.5447 19.75Z"/>
</mask>
<path d="M22.7747 18.7948C22.0533 17.5684 21.2017 15.2453 21.2017 11.1415V10.3042C21.2017 5.20991 17.1094 1.03538 12.071 1H12C10.7896 0.999996 9.59114 1.23808 8.47319 1.70062C7.35525 2.16316 6.33981 2.84106 5.48504 3.69549C4.63028 4.54992 3.95298 5.5641 3.49195 6.67993C3.03091 7.79576 2.7952 8.99131 2.79831 10.1981V11.1415C2.79831 15.2453 1.94674 17.5684 1.22527 18.7948C1.07773 19.0472 1 19.3341 1 19.6262C1 19.9183 1.07773 20.2052 1.22527 20.4575C1.36752 20.7106 1.57547 20.9207 1.82729 21.066C2.0791 21.2112 2.36548 21.2862 2.65638 21.283H7.5056V21.5189C7.5056 22.7073 7.97912 23.8471 8.82198 24.6875C9.66484 25.5279 10.808 26 12 26C13.192 26 14.3352 25.5279 15.178 24.6875C16.0209 23.8471 16.4944 22.7073 16.4944 21.5189V21.283H21.3436C21.6345 21.2862 21.9209 21.2112 22.1727 21.066C22.4245 20.9207 22.6325 20.7106 22.7747 20.4575C22.9223 20.2052 23 19.9183 23 19.6262C23 19.3341 22.9223 19.0472 22.7747 18.7948ZM15.0751 21.5189C15.0751 22.332 14.7511 23.1119 14.1744 23.6869C13.5977 24.2619 12.8156 24.5849 12 24.5849C11.1844 24.5849 10.4023 24.2619 9.82557 23.6869C9.24887 23.1119 8.92489 22.332 8.92489 21.5189V21.283H15.0751V21.5189ZM21.5447 19.75C21.5263 19.787 21.4975 19.8179 21.4618 19.8389C21.4261 19.8598 21.385 19.8699 21.3436 19.8679H2.65638C2.61499 19.8699 2.57392 19.8598 2.53821 19.8389C2.50249 19.8179 2.47368 19.787 2.45532 19.75C2.43455 19.7141 2.42362 19.6735 2.42362 19.6321C2.42362 19.5907 2.43455 19.55 2.45532 19.5142C3.25958 18.1226 4.21759 15.5519 4.21759 11.1415V10.1981C4.21604 9.17758 4.4161 8.16674 4.80637 7.22329C5.19663 6.27985 5.76944 5.42229 6.49211 4.69957C7.21477 3.97685 8.07313 3.40313 9.01817 3.01115C9.96322 2.61918 10.9764 2.41664 12 2.41509H12.0591C16.317 2.43868 19.7824 5.98821 19.7824 10.3042V11.1415C19.7824 15.5519 20.7404 18.1226 21.5447 19.5142C21.5654 19.55 21.5764 19.5907 21.5764 19.6321C21.5764 19.6735 21.5654 19.7141 21.5447 19.75Z" fill="#00598F"/>
<path d="M22.7747 18.7948L23.2064 18.5425L23.2057 18.5413L22.7747 18.7948ZM12.071 1L12.0745 0.5H12.071V1ZM12 1L12 1.5H12V1ZM2.79831 10.1981H3.29831L3.29831 10.1968L2.79831 10.1981ZM1.22527 18.7948L0.794309 18.5413L0.793618 18.5425L1.22527 18.7948ZM1.22527 20.4575L1.66117 20.2125L1.65692 20.2052L1.22527 20.4575ZM2.65638 21.283V20.783L2.65094 20.783L2.65638 21.283ZM7.5056 21.283H8.0056V20.783H7.5056V21.283ZM7.5056 21.5189H7.0056H7.5056ZM16.4944 21.5189H16.9944H16.4944ZM16.4944 21.283V20.783H15.9944V21.283H16.4944ZM21.3436 21.283L21.3491 20.783H21.3436V21.283ZM22.7747 20.4575L22.343 20.2052L22.3389 20.2125L22.7747 20.4575ZM15.0751 21.5189H15.5751H15.0751ZM8.92489 21.5189H8.42489H8.92489ZM8.92489 21.283V20.783H8.42489V21.283H8.92489ZM15.0751 21.283H15.5751V20.783H15.0751V21.283ZM21.5447 19.75L21.112 19.4994L21.1039 19.5134L21.0968 19.5278L21.5447 19.75ZM21.3436 19.8679L21.3676 19.3685L21.3556 19.3679H21.3436V19.8679ZM2.65638 19.8679V19.3679H2.64439L2.63242 19.3685L2.65638 19.8679ZM2.45532 19.75L2.90324 19.5278L2.89608 19.5134L2.88801 19.4994L2.45532 19.75ZM2.45532 19.5142L2.88801 19.7647L2.88821 19.7644L2.45532 19.5142ZM4.21759 10.1981H4.71759L4.71759 10.1974L4.21759 10.1981ZM12 2.41509V1.91509L11.9992 1.91509L12 2.41509ZM12.0591 2.41509L12.0619 1.91509H12.0591V2.41509ZM21.5447 19.5142L21.1118 19.7644L21.112 19.7647L21.5447 19.5142ZM23.2057 18.5413C22.5386 17.4072 21.7017 15.1761 21.7017 11.1415H20.7017C20.7017 15.3145 21.568 17.7295 22.3438 19.0483L23.2057 18.5413ZM21.7017 11.1415V10.3042H20.7017V11.1415H21.7017ZM21.7017 10.3042C21.7017 4.94085 17.3934 0.537359 12.0745 0.500012L12.0675 1.49999C16.8255 1.5334 20.7017 5.47896 20.7017 10.3042H21.7017ZM12.071 0.5H12V1.5H12.071V0.5ZM12 0.5C10.7241 0.499996 9.46062 0.750976 8.28204 1.2386L8.66435 2.16264C9.72165 1.72519 10.8552 1.5 12 1.5L12 0.5ZM8.28204 1.2386C7.10345 1.72623 6.03284 2.44094 5.13156 3.34187L5.83853 4.04911C6.64678 3.24117 7.60704 2.60008 8.66435 2.16264L8.28204 1.2386ZM5.13156 3.34187C4.23028 4.2428 3.51604 5.31225 3.02984 6.489L3.95405 6.87086C4.38992 5.81595 5.03028 4.85705 5.83853 4.04911L5.13156 3.34187ZM3.02984 6.489C2.54363 7.66575 2.29503 8.92663 2.29831 10.1994L3.29831 10.1968C3.29537 9.056 3.51819 7.92577 3.95405 6.87086L3.02984 6.489ZM2.29831 10.1981V11.1415H3.29831V10.1981H2.29831ZM2.29831 11.1415C2.29831 15.1761 1.46144 17.4072 0.79431 18.5413L1.65623 19.0483C2.43204 17.7295 3.29831 15.3145 3.29831 11.1415H2.29831ZM0.793618 18.5425C0.601359 18.8713 0.5 19.2453 0.5 19.6262H1.5C1.5 19.4228 1.55411 19.223 1.65692 19.0472L0.793618 18.5425ZM0.5 19.6262C0.5 20.007 0.601359 20.381 0.793618 20.7099L1.65692 20.2052C1.55411 20.0293 1.5 19.8295 1.5 19.6262H0.5ZM0.789435 20.7026C0.975756 21.034 1.24801 21.3091 1.57746 21.4991L2.07711 20.6329C1.90294 20.5324 1.75929 20.3871 1.66111 20.2125L0.789435 20.7026ZM1.57746 21.4991C1.9069 21.6891 2.28146 21.7871 2.66183 21.783L2.65094 20.783C2.44951 20.7852 2.25129 20.7333 2.07711 20.6329L1.57746 21.4991ZM2.65638 21.783H7.5056V20.783H2.65638V21.783ZM7.0056 21.283V21.5189H8.0056V21.283H7.0056ZM7.0056 21.5189C7.0056 22.8404 7.53216 24.1076 8.46895 25.0416L9.17501 24.3334C8.42608 23.5867 8.0056 22.5743 8.0056 21.5189H7.0056ZM8.46895 25.0416C9.40569 25.9756 10.6759 26.5 12 26.5V25.5C10.9401 25.5 9.92399 25.0802 9.17501 24.3334L8.46895 25.0416ZM12 26.5C13.3241 26.5 14.5943 25.9756 15.5311 25.0416L14.825 24.3334C14.076 25.0802 13.0599 25.5 12 25.5V26.5ZM15.5311 25.0416C16.4678 24.1076 16.9944 22.8404 16.9944 21.5189H15.9944C15.9944 22.5743 15.5739 23.5867 14.825 24.3334L15.5311 25.0416ZM16.9944 21.5189V21.283H15.9944V21.5189H16.9944ZM16.4944 21.783H21.3436V20.783H16.4944V21.783ZM21.3382 21.783C21.7185 21.7871 22.0931 21.6891 22.4225 21.4991L21.9229 20.6329C21.7487 20.7333 21.5505 20.7852 21.3491 20.783L21.3382 21.783ZM22.4225 21.4991C22.752 21.3091 23.0242 21.034 23.2106 20.7026L22.3389 20.2125C22.2407 20.3871 22.0971 20.5324 21.9229 20.6329L22.4225 21.4991ZM23.2064 20.7099C23.3986 20.381 23.5 20.007 23.5 19.6262H22.5C22.5 19.8295 22.4459 20.0293 22.3431 20.2052L23.2064 20.7099ZM23.5 19.6262C23.5 19.2453 23.3986 18.8713 23.2064 18.5425L22.3431 19.0472C22.4459 19.223 22.5 19.4228 22.5 19.6262H23.5ZM14.5751 21.5189C14.5751 22.1989 14.3042 22.8515 13.8214 23.3328L14.5275 24.041C15.1981 23.3723 15.5751 22.4651 15.5751 21.5189H14.5751ZM13.8214 23.3328C13.3386 23.8142 12.6834 24.0849 12 24.0849V25.0849C12.9477 25.0849 13.8569 24.7096 14.5275 24.041L13.8214 23.3328ZM12 24.0849C11.3166 24.0849 10.6614 23.8142 10.1786 23.3328L9.47253 24.041C10.1431 24.7096 11.0523 25.0849 12 25.0849V24.0849ZM10.1786 23.3328C9.69583 22.8515 9.42488 22.1989 9.42488 21.5189H8.42489C8.42489 22.4651 8.80191 23.3723 9.47253 24.041L10.1786 23.3328ZM9.42488 21.5189V21.283H8.42489V21.5189H9.42488ZM8.92489 21.783H15.0751V20.783H8.92489V21.783ZM14.5751 21.283V21.5189H15.5751V21.283H14.5751ZM21.0968 19.5278C21.1217 19.4775 21.1607 19.4358 21.2088 19.4076L21.7147 20.2702C21.8343 20.2001 21.9309 20.0966 21.9926 19.9722L21.0968 19.5278ZM21.2088 19.4076C21.2569 19.3794 21.3121 19.3658 21.3676 19.3685L21.3197 20.3673C21.4579 20.374 21.5952 20.3403 21.7147 20.2702L21.2088 19.4076ZM21.3436 19.3679H2.65638V20.3679H21.3436V19.3679ZM2.63242 19.3685C2.68792 19.3658 2.74308 19.3794 2.79116 19.4076L2.28525 20.2702C2.40477 20.3403 2.54206 20.374 2.68034 20.3673L2.63242 19.3685ZM2.79116 19.4076C2.83926 19.4358 2.87828 19.4775 2.90324 19.5278L2.00739 19.9722C2.06908 20.0966 2.16573 20.2001 2.28525 20.2702L2.79116 19.4076ZM2.88801 19.4994C2.9113 19.5397 2.92362 19.5854 2.92362 19.6321H1.92362C1.92362 19.7615 1.95781 19.8886 2.02262 20.0006L2.88801 19.4994ZM2.92362 19.6321C2.92362 19.6787 2.9113 19.7245 2.88801 19.7647L2.02262 19.2636C1.95781 19.3755 1.92362 19.5026 1.92362 19.6321H2.92362ZM2.88821 19.7644C3.74257 18.2862 4.71759 15.6266 4.71759 11.1415H3.71759C3.71759 15.4772 2.77659 17.9591 2.02242 19.2639L2.88821 19.7644ZM4.71759 11.1415V10.1981H3.71759V11.1415H4.71759ZM4.71759 10.1974C4.71614 9.24269 4.90329 8.29705 5.2684 7.41442L4.34433 7.03217C3.92892 8.03642 3.71594 9.11248 3.71759 10.1989L4.71759 10.1974ZM5.2684 7.41442C5.6335 6.53178 6.16944 5.7294 6.84567 5.05311L6.13854 4.34603C5.36945 5.11518 4.75975 6.02792 4.34433 7.03217L5.2684 7.41442ZM6.84567 5.05311C7.52191 4.37682 8.32521 3.83987 9.20973 3.473L8.82662 2.5493C7.82105 2.96638 6.90763 3.57688 6.13854 4.34603L6.84567 5.05311ZM9.20973 3.473C10.0943 3.10613 11.0427 2.91654 12.0008 2.91509L11.9992 1.91509C10.9102 1.91674 9.83218 2.13223 8.82662 2.5493L9.20973 3.473ZM12 2.91509H12.0591V1.91509H12V2.91509ZM12.0564 2.91509C16.0314 2.93711 19.2824 6.25545 19.2824 10.3042H20.2824C20.2824 5.72096 16.6026 1.94025 12.0619 1.9151L12.0564 2.91509ZM19.2824 10.3042V11.1415H20.2824V10.3042H19.2824ZM19.2824 11.1415C19.2824 15.6266 20.2574 18.2862 21.1118 19.7644L21.9776 19.2639C21.2234 17.9591 20.2824 15.4772 20.2824 11.1415H19.2824ZM21.112 19.7647C21.0887 19.7245 21.0764 19.6787 21.0764 19.6321H22.0764C22.0764 19.5026 22.0422 19.3755 21.9774 19.2636L21.112 19.7647ZM21.0764 19.6321C21.0764 19.5854 21.0887 19.5397 21.112 19.4994L21.9774 20.0006C22.0422 19.8886 22.0764 19.7615 22.0764 19.6321H21.0764Z" fill="#00598F" mask="url(#path-1-outside-1_309_9)"/>
</svg>
