<svg width="68" height="77" viewBox="0 0 68 77" fill="none" xmlns="http://www.w3.org/2000/svg">
<path d="M42.8058 7.87078C42.5862 5.87258 41.6503 4.02681 40.1772 2.68636C38.704 1.3459 36.7968 0.604797 34.8203 0.604736H22.3207C20.3442 0.604797 18.4371 1.3459 16.9639 2.68636C15.4907 4.02681 14.5549 5.87258 14.3353 7.87078H8.03546C5.90433 7.87078 3.86047 8.732 2.35353 10.265C0.846592 11.798 0 13.8771 0 16.0451V65.0909C0 67.2589 0.846592 69.338 2.35353 70.871C3.86047 72.404 5.90433 73.2652 8.03546 73.2652H25.0028C24.9773 72.5399 25.053 71.8145 25.2278 71.1108L26.0385 67.8157H8.03546C7.32508 67.8157 6.6438 67.5286 6.14149 67.0176C5.63917 66.5066 5.35697 65.8136 5.35697 65.0909V16.0451C5.35697 15.3224 5.63917 14.6294 6.14149 14.1184C6.6438 13.6074 7.32508 13.3203 8.03546 13.3203H15.6388C17.0816 15.511 19.5351 16.9533 22.3207 16.9533H34.8203C37.606 16.9533 40.0595 15.511 41.5023 13.3203H49.1056C49.816 13.3203 50.4973 13.6074 50.9996 14.1184C51.5019 14.6294 51.7841 15.3224 51.7841 16.0451V36.4263C53.3448 34.9731 55.1983 34.0286 57.1411 33.589V16.0451C57.1411 14.9716 56.9332 13.9087 56.5294 12.9169C56.1256 11.9252 55.5337 11.024 54.7875 10.265C54.0414 9.50593 53.1555 8.90381 52.1806 8.49301C51.2057 8.08222 50.1608 7.87078 49.1056 7.87078H42.8058ZM42.8379 8.21955L42.8558 8.77904C42.8558 8.59012 42.8487 8.40484 42.8379 8.21955ZM22.3207 6.05427H34.8203C35.5307 6.05427 36.212 6.34134 36.7143 6.85234C37.2166 7.36333 37.4988 8.05639 37.4988 8.77904C37.4988 9.50169 37.2166 10.1947 36.7143 10.7057C36.212 11.2167 35.5307 11.5038 34.8203 11.5038H22.3207C21.6103 11.5038 20.9291 11.2167 20.4268 10.7057C19.9244 10.1947 19.6422 9.50169 19.6422 8.77904C19.6422 8.05639 19.9244 7.36333 20.4268 6.85234C20.9291 6.34134 21.6103 6.05427 22.3207 6.05427ZM33.4132 55.1001H14.2853C13.5749 55.1001 12.8936 55.3872 12.3913 55.8982C11.889 56.4091 11.6068 57.1022 11.6068 57.8249C11.6068 58.5475 11.889 59.2406 12.3913 59.7516C12.8936 60.2626 13.5749 60.5496 14.2853 60.5496H28.5098C29.0277 59.7177 29.6348 58.9438 30.3241 58.2427L33.4132 55.1001ZM28.5705 46.0175H14.2853C13.5749 46.0175 12.8936 45.7305 12.3913 45.2195C11.889 44.7085 11.6068 44.0154 11.6068 43.2928C11.6068 42.5701 11.889 41.8771 12.3913 41.3661C12.8936 40.8551 13.5749 40.568 14.2853 40.568H28.5705C29.2809 40.568 29.9622 40.8551 30.4645 41.3661C30.9668 41.8771 31.249 42.5701 31.249 43.2928C31.249 44.0154 30.9668 44.7085 30.4645 45.2195C29.9622 45.7305 29.2809 46.0175 28.5705 46.0175ZM42.8558 31.4854H14.2853C13.5749 31.4854 12.8936 31.1984 12.3913 30.6874C11.889 30.1764 11.6068 29.4833 11.6068 28.7607C11.6068 28.038 11.889 27.345 12.3913 26.834C12.8936 26.323 13.5749 26.0359 14.2853 26.0359H42.8558C43.5662 26.0359 44.2475 26.323 44.7498 26.834C45.2521 27.345 45.5343 28.038 45.5343 28.7607C45.5343 29.4833 45.2521 30.1764 44.7498 30.6874C44.2475 31.1984 43.5662 31.4854 42.8558 31.4854ZM53.9269 39.3691L32.8454 60.8112C31.6172 62.0612 30.7457 63.6271 30.3241 65.3416L28.6884 71.9937C28.5257 72.6555 28.5344 73.3489 28.7135 74.0064C28.8926 74.6638 29.2361 75.2628 29.7105 75.745C30.1849 76.2273 30.774 76.5762 31.4204 76.758C32.0668 76.9397 32.7485 76.948 33.399 76.782L39.9345 75.1217C41.6216 74.6925 43.1623 73.8046 44.3915 72.5531L65.4694 51.111C66.9411 49.5418 67.751 47.4492 67.726 45.2805C67.7009 43.1118 66.8429 41.0391 65.3354 39.5054C63.8278 37.9718 61.7903 37.099 59.6584 37.0735C57.5265 37.048 55.4694 37.8719 53.9269 39.3691Z" fill="#00598F"/>
</svg>
