<svg width="30" height="30" viewBox="0 0 30 30" fill="none" xmlns="http://www.w3.org/2000/svg">
<path d="M14.9993 0C23.2833 0 29.9985 6.71516 29.9985 14.9992C29.9985 23.2833 23.2833 29.9985 14.9993 29.9985C12.6054 30.0018 10.2457 29.4298 8.1191 28.3306L2.38039 29.931C2.06022 30.0203 1.72205 30.023 1.40053 29.9386C1.07901 29.8542 0.785696 29.6859 0.550649 29.4508C0.315602 29.2158 0.14727 28.9225 0.0629001 28.601C-0.0214698 28.2795 -0.0188437 27.9413 0.070509 27.6211L1.67243 21.8869C0.570512 19.7584 -0.00310304 17.396 1.26248e-05 14.9992C1.26248e-05 6.71516 6.71517 0 14.9993 0ZM14.9993 2.24989C11.6179 2.24989 8.37507 3.59312 5.9841 5.98409C3.59313 8.37506 2.2499 11.6179 2.2499 14.9992C2.2499 17.2041 2.80937 19.3235 3.85932 21.2044L4.08431 21.6094L2.41639 27.5851L8.39659 25.9172L8.80157 26.1422C10.5031 27.0882 12.3986 27.632 14.3428 27.7318C16.287 27.8317 18.2283 27.485 20.0178 26.7183C21.8072 25.9516 23.3973 24.7853 24.6662 23.3088C25.935 21.8324 26.8489 20.0849 27.3377 18.2005C27.8265 16.3161 27.8773 14.3447 27.4862 12.4377C27.095 10.5306 26.2723 8.73839 25.0812 7.19854C23.8901 5.65868 22.3621 4.41206 20.6145 3.55426C18.8669 2.69645 16.946 2.25026 14.9993 2.24989Z" fill="white"/>
</svg>
