<svg width="19" height="20" viewBox="0 0 19 20" fill="none" xmlns="http://www.w3.org/2000/svg">
<path d="M13.474 3.90783L15.592 6.02483M14.836 2.04283L9.109 7.76983C8.81309 8.06533 8.61128 8.44181 8.529 8.85183L8 11.4998L10.648 10.9698C11.058 10.8878 11.434 10.6868 11.73 10.3908L17.457 4.66383C17.6291 4.49173 17.7656 4.28742 17.8588 4.06256C17.9519 3.83771 17.9998 3.59671 17.9998 3.35333C17.9998 3.10994 17.9519 2.86895 17.8588 2.64409C17.7656 2.41923 17.6291 2.21492 17.457 2.04283C17.2849 1.87073 17.0806 1.73421 16.8557 1.64108C16.6309 1.54794 16.3899 1.5 16.1465 1.5C15.9031 1.5 15.6621 1.54794 15.4373 1.64108C15.2124 1.73421 15.0081 1.87073 14.836 2.04283V2.04283Z" stroke="#00598F" stroke-width="1.5" stroke-linecap="round" stroke-linejoin="round"/>
<path d="M16 13.4998V16.4998C16 17.0302 15.7893 17.5389 15.4142 17.914C15.0391 18.289 14.5304 18.4998 14 18.4998H3C2.46957 18.4998 1.96086 18.289 1.58579 17.914C1.21071 17.5389 1 17.0302 1 16.4998V5.49976C1 4.96932 1.21071 4.46061 1.58579 4.08554C1.96086 3.71047 2.46957 3.49976 3 3.49976H6" stroke="#00598F" stroke-width="1.5" stroke-linecap="round" stroke-linejoin="round"/>
</svg>
