<svg width="50" height="50" viewBox="0 0 50 50" fill="none" xmlns="http://www.w3.org/2000/svg">
<path d="M49.9182 27.952C49.9229 26.9252 49.7613 23.0514 49.6381 21.9435C48.2181 9.22838 37.8982 0 25.1011 0C11.7719 0 0.972245 10.2707 0.239575 23.8894C0.22397 24.1867 0.11474 26.2956 0.106938 27.5509L0.103037 28.2492C0.0390107 28.5379 0 28.836 0 29.1434V39.6107C0 41.8967 1.85925 43.756 4.14528 43.756H8.35298C10.639 43.756 12.499 41.8967 12.499 39.6107V29.1441C12.499 26.8581 10.6382 24.9989 8.35293 24.9989H4.1445C3.86303 24.9989 3.58229 25.0274 3.30655 25.0839C3.32996 24.5776 3.35102 24.1781 3.35653 24.0571C3.99865 12.1206 13.4572 3.12086 25.1011 3.12086C36.2815 3.12086 45.2954 11.1836 46.5359 22.2907C46.5882 22.7542 46.6553 23.9323 46.7091 25.1151C46.4071 25.0449 46.0958 24.9988 45.7728 24.9988H41.6143C39.3283 24.9988 37.469 26.8581 37.469 29.1441V39.5631C37.469 41.1414 38.3663 42.5014 39.6678 43.2004L29.6498 47.1335V46.8791C29.6498 46.0178 28.9507 45.3187 28.0894 45.3187H23.4081C22.5467 45.3187 21.8477 46.0178 21.8477 46.8791V48.4396C21.8477 49.3009 22.5467 50 23.4081 50H28.0894C28.1026 50 28.1143 49.9961 28.1276 49.9961L30.9247 49.9852L46.9949 43.6764C47.2055 43.589 47.3842 43.4587 47.5309 43.3026C48.9376 42.6387 49.9198 41.2187 49.9198 39.5631V29.144C49.9198 28.8897 49.8886 28.6424 49.8442 28.4012C49.8871 28.2577 49.9175 28.1086 49.9183 27.9518L49.9182 27.952ZM4.14455 28.1197H8.35234C8.918 28.1197 9.3775 28.5785 9.3775 29.1441V39.6115C9.3775 40.1771 8.91717 40.6359 8.35225 40.6359H4.1446C3.57894 40.6359 3.12022 40.1771 3.12022 39.6115V29.1441C3.12096 28.5785 3.57972 28.1197 4.1446 28.1197H4.14455ZM40.5892 29.1441C40.5892 28.5785 41.0481 28.1197 41.6137 28.1197H45.7722C46.3379 28.1197 46.7974 28.5785 46.7974 29.1441V39.5631C46.7974 40.1288 46.337 40.5875 45.7722 40.5875H41.6136C41.048 40.5875 40.5892 40.1288 40.5892 39.5631V29.1441Z" fill="#00598F"/>
</svg>
