<svg width="30" height="30" viewBox="0 0 30 30" fill="none" xmlns="http://www.w3.org/2000/svg">
<path d="M15 0C6.71652 0 0 6.71652 0 15C0 23.2835 6.71652 30 15 30C23.2835 30 30 23.2835 30 15C30 6.71652 23.2835 0 15 0ZM15 27.4554C8.12277 27.4554 2.54464 21.8772 2.54464 15C2.54464 8.12277 8.12277 2.54464 15 2.54464C21.8772 2.54464 27.4554 8.12277 27.4554 15C27.4554 21.8772 21.8772 27.4554 15 27.4554Z" fill="#00598F"/>
<path d="M13.3926 9.10714C13.3926 9.53338 13.5619 9.94217 13.8633 10.2436C14.1647 10.545 14.5735 10.7143 14.9997 10.7143C15.426 10.7143 15.8347 10.545 16.1361 10.2436C16.4375 9.94217 16.6069 9.53338 16.6069 9.10714C16.6069 8.6809 16.4375 8.27212 16.1361 7.97072C15.8347 7.66932 15.426 7.5 14.9997 7.5C14.5735 7.5 14.1647 7.66932 13.8633 7.97072C13.5619 8.27212 13.3926 8.6809 13.3926 9.10714ZM15.8033 12.8571H14.1961C14.0488 12.8571 13.9283 12.9777 13.9283 13.125V22.2321C13.9283 22.3795 14.0488 22.5 14.1961 22.5H15.8033C15.9506 22.5 16.0711 22.3795 16.0711 22.2321V13.125C16.0711 12.9777 15.9506 12.8571 15.8033 12.8571Z" fill="#00598F"/>
</svg>
