<svg width="40" height="30" viewBox="0 0 40 30" fill="none" xmlns="http://www.w3.org/2000/svg">
<path fill-rule="evenodd" clip-rule="evenodd" d="M11.2002 25.6656C11.2002 25.2943 11.3477 24.9382 11.6103 24.6756C11.8728 24.4131 12.2289 24.2656 12.6002 24.2656H37.8009C38.1722 24.2656 38.5283 24.4131 38.7909 24.6756C39.0534 24.9382 39.2009 25.2943 39.2009 25.6656C39.2009 26.0369 39.0534 26.393 38.7909 26.6556C38.5283 26.9182 38.1722 27.0657 37.8009 27.0657H12.6002C12.2289 27.0657 11.8728 26.9182 11.6103 26.6556C11.3477 26.393 11.2002 26.0369 11.2002 25.6656ZM11.2002 14.4653C11.2002 14.094 11.3477 13.7379 11.6103 13.4754C11.8728 13.2128 12.2289 13.0653 12.6002 13.0653H37.8009C38.1722 13.0653 38.5283 13.2128 38.7909 13.4754C39.0534 13.7379 39.2009 14.094 39.2009 14.4653C39.2009 14.8366 39.0534 15.1927 38.7909 15.4553C38.5283 15.7179 38.1722 15.8654 37.8009 15.8654H12.6002C12.2289 15.8654 11.8728 15.7179 11.6103 15.4553C11.3477 15.1927 11.2002 14.8366 11.2002 14.4653ZM11.2002 3.26503C11.2002 2.89371 11.3477 2.53761 11.6103 2.27505C11.8728 2.01249 12.2289 1.86499 12.6002 1.86499H37.8009C38.1722 1.86499 38.5283 2.01249 38.7909 2.27505C39.0534 2.53761 39.2009 2.89371 39.2009 3.26503C39.2009 3.63634 39.0534 3.99245 38.7909 4.255C38.5283 4.51756 38.1722 4.66506 37.8009 4.66506H12.6002C12.2289 4.66506 11.8728 4.51756 11.6103 4.255C11.3477 3.99245 11.2002 3.63634 11.2002 3.26503Z" fill="#00598F"/>
<path d="M1.99645 26.6875V25.3603H2.80007C3.40769 25.3603 3.8165 24.9767 3.8165 24.4727C3.8165 23.9546 3.37409 23.6046 2.80568 23.6046C2.18126 23.6046 1.77805 24.0302 1.76125 24.4727H0.109203C0.154004 23.165 1.15363 22.269 2.87008 22.269C4.51652 22.2634 5.54135 23.0838 5.54975 24.2374C5.55505 24.6331 5.41934 25.0178 5.16692 25.3225C4.91451 25.6273 4.56186 25.8322 4.17211 25.9007V25.9931C4.61399 26.026 5.02616 26.2281 5.3229 26.5571C5.61964 26.8862 5.77811 27.317 5.76535 27.7599C5.77375 29.2524 4.35972 30 2.82247 30C0.985626 30 0.0224006 28.964 0 27.7767H1.62964C1.65204 28.2752 2.15046 28.6336 2.81127 28.642C3.52249 28.642 3.99851 28.236 3.99291 27.6619C3.98731 27.1159 3.5589 26.6875 2.83368 26.6875H1.99365H1.99645ZM1.98525 13.53H0.294008V13.432C0.294008 12.2895 1.12003 11.0687 2.97648 11.0687C4.60892 11.0687 5.66455 11.9815 5.66455 13.1856C5.66455 14.2748 4.94493 14.9132 4.33172 15.56L2.82808 17.1617V17.2457H5.77935V18.6653H0.400411V17.5593L3.08008 14.7872C3.46649 14.3896 3.9005 13.936 3.9005 13.3648C3.9005 12.8607 3.48889 12.4687 2.94288 12.4687C2.81683 12.4641 2.69116 12.4853 2.57363 12.5311C2.45609 12.5769 2.34918 12.6463 2.25946 12.7349C2.16975 12.8236 2.09914 12.9297 2.05198 13.0467C2.00482 13.1637 1.98211 13.2891 1.98525 13.4152V13.53ZM4.37932 7.465H2.60127V1.65204H2.51447L0.840022 2.82808V1.24043L2.60127 0H4.37932V7.465Z" fill="#00598F"/>
</svg>
