<svg width="83" height="20" viewBox="0 0 83 20" fill="none" xmlns="http://www.w3.org/2000/svg">
<path d="M7.856 19.24C5.392 19.24 3.536 18.68 2.288 17.56C1.056 16.424 0.44 14.608 0.44 12.112V5.872L0.464 3.448L0.44 2.008H4.808V11.632C4.808 12.752 5.032 13.664 5.48 14.368C5.928 15.056 6.72 15.4 7.856 15.4C8.992 15.4 9.792 15.08 10.256 14.44C10.736 13.784 10.976 12.848 10.976 11.632V2.008H15.272V12.112C15.272 14.56 14.664 16.36 13.448 17.512C12.248 18.664 10.384 19.24 7.856 19.24ZM18.1588 19V11.776L17.6788 9.136L18.4228 7.672H21.9988V8.704L22.2148 8.848C22.3908 8.688 22.6308 8.504 22.9348 8.296C23.2548 8.072 23.6388 7.872 24.0868 7.696C24.5348 7.52 25.0388 7.432 25.5988 7.432C27.0388 7.432 28.1188 7.84 28.8387 8.656C29.5588 9.472 29.9188 10.616 29.9188 12.088V15.136L30.4228 17.536L29.9188 19H25.5988V12.712C25.5988 12.104 25.4628 11.64 25.1908 11.32C24.9348 10.984 24.5268 10.816 23.9668 10.816L22.4788 11.272V19H18.1588ZM34.8969 6.976L31.8489 3.904L34.8969 0.855999L37.9449 3.904L34.8969 6.976ZM32.7369 19V11.056L32.2329 9.136L32.7129 7.672H37.0569V19H32.7369Z" fill="#00C2FF"/>
<path d="M40.2247 19V5.848L39.7447 3.448L40.2247 2.008H48.3847C50.1927 2.008 51.6407 2.344 52.7287 3.016C53.8167 3.688 54.3607 4.776 54.3607 6.28C54.3607 7.032 54.2327 7.712 53.9767 8.32C53.7207 8.928 53.3527 9.4 52.8727 9.736C53.9607 10.088 54.7607 10.624 55.2727 11.344C55.7847 12.064 56.0407 12.92 56.0407 13.912C56.0407 15.656 55.5287 16.944 54.5047 17.776C53.4967 18.592 52.0167 19 50.0647 19H40.2247ZM44.5447 8.608H48.3367C48.8807 8.608 49.2727 8.48 49.5127 8.224C49.7527 7.968 49.8727 7.632 49.8727 7.216C49.8727 6.688 49.6967 6.328 49.3447 6.136C48.9927 5.944 48.5767 5.848 48.0967 5.848H44.5447V8.608ZM44.5447 15.16H49.3447C49.9207 15.16 50.3447 15.088 50.6167 14.944C50.9047 14.8 51.0887 14.616 51.1687 14.392C51.2647 14.168 51.3127 13.936 51.3127 13.696C51.3127 13.28 51.1607 12.928 50.8567 12.64C50.5687 12.336 50.1447 12.184 49.5847 12.184H44.5447V15.16ZM61.31 19.24C60.35 19.24 59.606 19.056 59.078 18.688C58.566 18.32 58.206 17.792 57.998 17.104C57.806 16.4 57.71 15.56 57.71 14.584V7.648H62.03V13.96C62.03 14.552 62.142 15.016 62.366 15.352C62.606 15.688 62.958 15.856 63.422 15.856C63.854 15.856 64.246 15.672 64.598 15.304C64.966 14.936 65.15 14.4 65.15 13.696V7.648H69.47V15.136L69.974 17.536L69.47 19H65.414V17.824L65.174 17.704C64.966 17.912 64.662 18.136 64.262 18.376C63.878 18.616 63.43 18.824 62.918 19C62.422 19.16 61.886 19.24 61.31 19.24ZM76.9559 19.24C75.7879 19.24 74.7559 19.12 73.8599 18.88C72.9639 18.64 72.2679 18.392 71.7719 18.136V14.8C72.4279 15.088 73.0999 15.312 73.7879 15.472C74.4919 15.632 75.1239 15.744 75.6839 15.808C76.2439 15.856 76.6439 15.88 76.8839 15.88C77.1559 15.88 77.3479 15.84 77.4599 15.76C77.5719 15.664 77.6279 15.552 77.6279 15.424C77.6279 15.248 77.4839 15.104 77.1959 14.992C76.9079 14.864 76.3639 14.704 75.5639 14.512C74.9079 14.352 74.2679 14.152 73.6439 13.912C73.0359 13.656 72.5319 13.304 72.1319 12.856C71.7479 12.408 71.5559 11.808 71.5559 11.056C71.5559 10.128 71.7719 9.4 72.2039 8.872C72.6359 8.344 73.2519 7.976 74.0519 7.768C74.8519 7.544 75.7879 7.432 76.8599 7.432C77.4679 7.432 78.0359 7.464 78.5639 7.528C79.0919 7.592 79.4679 7.64 79.6919 7.672L81.9239 9.112L80.8439 11.68L76.6439 10.768C76.1319 10.768 75.8759 10.936 75.8759 11.272C75.8759 11.624 76.2439 11.888 76.9799 12.064C77.5559 12.192 78.1479 12.336 78.7559 12.496C79.3639 12.64 79.9159 12.832 80.4119 13.072C80.9239 13.312 81.3319 13.632 81.6359 14.032C81.9559 14.432 82.1159 14.96 82.1159 15.616C82.1159 16.832 81.6759 17.744 80.7959 18.352C79.9319 18.944 78.6519 19.24 76.9559 19.24Z" fill="#00598F"/>
</svg>
