<svg width="120" height="120" viewBox="0 0 120 120" fill="none" xmlns="http://www.w3.org/2000/svg">
<circle cx="60" cy="60" r="60" fill="#00C2FF"/>
<path d="M96.6533 40.1556L91.6551 45.1751L96.6533 50.1946L91.6551 55.214L96.6533 60.2335L91.6551 65.2529L96.6533 70.2724H89.989C89.989 72.9349 88.9358 75.4883 87.0611 77.371C85.1864 79.2536 82.6438 80.3113 79.9926 80.3113C77.3413 80.3113 74.7987 79.2536 72.924 77.371C71.0493 75.4883 69.9961 72.9349 69.9961 70.2724H50.0032C50.0032 72.9349 48.95 75.4883 47.0753 77.371C45.2006 79.2536 42.6579 80.3113 40.0067 80.3113C37.3555 80.3113 34.8128 79.2536 32.9381 77.371C31.0634 75.4883 30.0102 72.9349 30.0102 70.2724H23.3459V46.8482C23.3459 43.1338 26.3116 40.1556 30.0102 40.1556H96.6533ZM86.6569 45.1751H78.3265V53.5409H86.6569V45.1751ZM73.3282 45.1751H59.9996V53.5409H73.3282V45.1751ZM55.0014 45.1751H41.6728V53.5409H55.0014V45.1751ZM36.6745 45.1751H28.3442V63.5798L36.6745 56.8872V45.1751ZM79.9926 65.2529C78.6669 65.2529 77.3956 65.7817 76.4583 66.7231C75.5209 67.6644 74.9943 68.9411 74.9943 70.2724C74.9943 71.6036 75.5209 72.8803 76.4583 73.8217C77.3956 74.763 78.6669 75.2918 79.9926 75.2918C81.3182 75.2918 82.5895 74.763 83.5268 73.8217C84.4642 72.8803 84.9908 71.6036 84.9908 70.2724C84.9908 68.9411 84.4642 67.6644 83.5268 66.7231C82.5895 65.7817 81.3182 65.2529 79.9926 65.2529M40.0067 65.2529C38.6811 65.2529 37.4098 65.7817 36.4724 66.7231C35.5351 67.6644 35.0085 68.9411 35.0085 70.2724C35.0085 71.6036 35.5351 72.8803 36.4724 73.8217C37.4098 74.763 38.6811 75.2918 40.0067 75.2918C41.3323 75.2918 42.6036 74.763 43.541 73.8217C44.4783 72.8803 45.0049 71.6036 45.0049 70.2724C45.0049 68.9411 44.4783 67.6644 43.541 66.7231C42.6036 65.7817 41.3323 65.2529 40.0067 65.2529Z" fill="#00598F"/>
</svg>
