<svg width="103" height="24" viewBox="0 0 103 24" fill="none" xmlns="http://www.w3.org/2000/svg">
<path d="M10.07 23.3C6.99 23.3 4.67 22.6 3.11 21.2C1.57 19.78 0.8 17.51 0.8 14.39V6.59L0.83 3.56L0.8 1.76H6.26V13.79C6.26 15.19 6.54 16.33 7.1 17.21C7.66 18.07 8.65 18.5 10.07 18.5C11.49 18.5 12.49 18.1 13.07 17.3C13.67 16.48 13.97 15.31 13.97 13.79V1.76H19.34V14.39C19.34 17.45 18.58 19.7 17.06 21.14C15.56 22.58 13.23 23.3 10.07 23.3ZM22.9484 23V13.97L22.3484 10.67L23.2784 8.84H27.7484V10.13L28.0184 10.31C28.2384 10.11 28.5384 9.88 28.9184 9.62C29.3184 9.34 29.7984 9.09 30.3584 8.87C30.9184 8.65 31.5484 8.54 32.2484 8.54C34.0484 8.54 35.3984 9.05 36.2984 10.07C37.1984 11.09 37.6484 12.52 37.6484 14.36V18.17L38.2784 21.17L37.6484 23H32.2484V15.14C32.2484 14.38 32.0784 13.8 31.7384 13.4C31.4184 12.98 30.9084 12.77 30.2084 12.77L28.3484 13.34V23H22.9484ZM43.8711 7.97L40.0611 4.13L43.8711 0.319999L47.6811 4.13L43.8711 7.97ZM41.1711 23V13.07L40.5411 10.67L41.1411 8.84H46.5711V23H41.1711Z" fill="#00C2FF"/>
<path d="M50.5309 23V6.56L49.9309 3.56L50.5309 1.76H60.7309C62.9909 1.76 64.8009 2.18 66.1609 3.02C67.5209 3.86 68.2009 5.22 68.2009 7.1C68.2009 8.04 68.0409 8.89 67.7209 9.65C67.4009 10.41 66.9409 11 66.3409 11.42C67.7009 11.86 68.7009 12.53 69.3409 13.43C69.9809 14.33 70.3009 15.4 70.3009 16.64C70.3009 18.82 69.6609 20.43 68.3809 21.47C67.1209 22.49 65.2709 23 62.8309 23H50.5309ZM55.9309 10.01H60.6709C61.3509 10.01 61.8409 9.85 62.1409 9.53C62.4409 9.21 62.5909 8.79 62.5909 8.27C62.5909 7.61 62.3709 7.16 61.9309 6.92C61.4909 6.68 60.9709 6.56 60.3709 6.56H55.9309V10.01ZM55.9309 18.2H61.9309C62.6509 18.2 63.1809 18.11 63.5209 17.93C63.8809 17.75 64.1109 17.52 64.2109 17.24C64.3309 16.96 64.3909 16.67 64.3909 16.37C64.3909 15.85 64.2009 15.41 63.8209 15.05C63.4609 14.67 62.9309 14.48 62.2309 14.48H55.9309V18.2ZM76.8875 23.3C75.6875 23.3 74.7575 23.07 74.0975 22.61C73.4575 22.15 73.0075 21.49 72.7475 20.63C72.5075 19.75 72.3875 18.7 72.3875 17.48V8.81H77.7875V16.7C77.7875 17.44 77.9275 18.02 78.2075 18.44C78.5075 18.86 78.9475 19.07 79.5275 19.07C80.0675 19.07 80.5575 18.84 80.9975 18.38C81.4575 17.92 81.6875 17.25 81.6875 16.37V8.81H87.0875V18.17L87.7175 21.17L87.0875 23H82.0175V21.53L81.7175 21.38C81.4575 21.64 81.0775 21.92 80.5775 22.22C80.0975 22.52 79.5375 22.78 78.8975 23C78.2775 23.2 77.6075 23.3 76.8875 23.3ZM96.4449 23.3C94.9849 23.3 93.6949 23.15 92.5749 22.85C91.4549 22.55 90.5849 22.24 89.9649 21.92V17.75C90.7849 18.11 91.6249 18.39 92.4849 18.59C93.3649 18.79 94.1549 18.93 94.8549 19.01C95.5549 19.07 96.0549 19.1 96.3549 19.1C96.6949 19.1 96.9349 19.05 97.0749 18.95C97.2149 18.83 97.2849 18.69 97.2849 18.53C97.2849 18.31 97.1049 18.13 96.7449 17.99C96.3849 17.83 95.7049 17.63 94.7049 17.39C93.8849 17.19 93.0849 16.94 92.3049 16.64C91.5449 16.32 90.9149 15.88 90.4149 15.32C89.9349 14.76 89.6949 14.01 89.6949 13.07C89.6949 11.91 89.9649 11 90.5049 10.34C91.0449 9.68 91.8149 9.22 92.8149 8.96C93.8149 8.68 94.9849 8.54 96.3249 8.54C97.0849 8.54 97.7949 8.58 98.4549 8.66C99.1149 8.74 99.5849 8.8 99.8649 8.84L102.655 10.64L101.305 13.85L96.0549 12.71C95.4149 12.71 95.0949 12.92 95.0949 13.34C95.0949 13.78 95.5549 14.11 96.4749 14.33C97.1949 14.49 97.9349 14.67 98.6949 14.87C99.4549 15.05 100.145 15.29 100.765 15.59C101.405 15.89 101.915 16.29 102.295 16.79C102.695 17.29 102.895 17.95 102.895 18.77C102.895 20.29 102.345 21.43 101.245 22.19C100.165 22.93 98.5649 23.3 96.4449 23.3Z" fill="#00598F"/>
</svg>
