<svg width="46" height="50" viewBox="0 0 46 50" fill="none" xmlns="http://www.w3.org/2000/svg">
<path d="M28.5372 4.76175C28.3908 3.45225 27.7669 2.24263 26.7848 1.36417C25.8027 0.485716 24.5312 3.98097e-05 23.2136 0H14.8805C13.5628 3.98097e-05 12.2914 0.485716 11.3093 1.36417C10.3272 2.24263 9.70325 3.45225 9.55684 4.76175H5.35697C3.93622 4.76175 2.57365 5.32615 1.56902 6.33078C0.564394 7.3354 0 8.69797 0 10.1187V42.2606C0 43.6813 0.564394 45.0439 1.56902 46.0485C2.57365 47.0532 3.93622 47.6175 5.35697 47.6175H16.6685C16.6515 47.1422 16.702 46.6668 16.8185 46.2057L17.359 44.0462H5.35697C4.88339 44.0462 4.4292 43.8581 4.09432 43.5232C3.75945 43.1883 3.57132 42.7342 3.57132 42.2606V10.1187C3.57132 9.64514 3.75945 9.19095 4.09432 8.85608C4.4292 8.5212 4.88339 8.33307 5.35697 8.33307H10.4259C11.3877 9.76874 13.0234 10.7139 14.8805 10.7139H23.2136C25.0706 10.7139 26.7063 9.76874 27.6682 8.33307H32.7371C33.2107 8.33307 33.6648 8.5212 33.9997 8.85608C34.3346 9.19095 34.5227 9.64514 34.5227 10.1187V23.4754C35.5632 22.5231 36.7988 21.9041 38.094 21.616V10.1187C38.094 9.41524 37.9555 8.71864 37.6863 8.0687C37.4171 7.41877 37.0225 6.82822 36.525 6.33078C36.0276 5.83334 35.437 5.43874 34.7871 5.16953C34.1372 4.90032 33.4406 4.76175 32.7371 4.76175H28.5372ZM28.5586 4.99032L28.5705 5.35697C28.5705 5.23317 28.5658 5.11174 28.5586 4.99032V4.99032ZM14.8805 3.57132H23.2136C23.6871 3.57132 24.1413 3.75945 24.4762 4.09432C24.8111 4.4292 24.9992 4.88339 24.9992 5.35697C24.9992 5.83056 24.8111 6.28475 24.4762 6.61963C24.1413 6.9545 23.6871 7.14263 23.2136 7.14263H14.8805C14.4069 7.14263 13.9527 6.9545 13.6178 6.61963C13.283 6.28475 13.0948 5.83056 13.0948 5.35697C13.0948 4.88339 13.283 4.4292 13.6178 4.09432C13.9527 3.75945 14.4069 3.57132 14.8805 3.57132ZM22.2755 35.7132H9.52351C9.04992 35.7132 8.59573 35.9013 8.26086 36.2362C7.92598 36.571 7.73785 37.0252 7.73785 37.4988C7.73785 37.9724 7.92598 38.4266 8.26086 38.7615C8.59573 39.0963 9.04992 39.2845 9.52351 39.2845H19.0065C19.3518 38.7393 19.7565 38.2321 20.216 37.7726L22.2755 35.7132ZM19.047 29.761H9.52351C9.04992 29.761 8.59573 29.5728 8.26086 29.238C7.92598 28.9031 7.73785 28.4489 7.73785 27.9753C7.73785 27.5017 7.92598 27.0475 8.26086 26.7127C8.59573 26.3778 9.04992 26.1896 9.52351 26.1896H19.047C19.5206 26.1896 19.9748 26.3778 20.3097 26.7127C20.6445 27.0475 20.8327 27.5017 20.8327 27.9753C20.8327 28.4489 20.6445 28.9031 20.3097 29.238C19.9748 29.5728 19.5206 29.761 19.047 29.761ZM28.5705 20.2375H9.52351C9.04992 20.2375 8.59573 20.0493 8.26086 19.7144C7.92598 19.3796 7.73785 18.9254 7.73785 18.4518C7.73785 17.9782 7.92598 17.524 8.26086 17.1891C8.59573 16.8543 9.04992 16.6661 9.52351 16.6661H28.5705C29.0441 16.6661 29.4983 16.8543 29.8332 17.1891C30.1681 17.524 30.3562 17.9782 30.3562 18.4518C30.3562 18.9254 30.1681 19.3796 29.8332 19.7144C29.4983 20.0493 29.0441 20.2375 28.5705 20.2375V20.2375ZM35.9513 25.404L21.8969 39.4559C21.0781 40.2751 20.4971 41.3012 20.216 42.4249L19.1256 46.7842C19.0171 47.218 19.0229 47.6724 19.1423 48.1033C19.2617 48.5341 19.4907 48.9267 19.807 49.2427C20.1233 49.5587 20.516 49.7874 20.9469 49.9065C21.3779 50.0256 21.8323 50.031 22.266 49.9222L26.623 48.8342C27.7477 48.5529 28.7748 47.9711 29.5943 47.1509L43.6462 33.099C44.6274 32.0706 45.1673 30.6992 45.1507 29.2779C45.134 27.8567 44.5619 26.4984 43.5569 25.4933C42.5519 24.4883 41.1935 23.9163 39.7723 23.8996C38.351 23.8829 36.9796 24.4228 35.9513 25.404V25.404Z" fill="#00598F"/>
</svg>
