<svg width="22" height="22" viewBox="0 0 22 22" fill="none" xmlns="http://www.w3.org/2000/svg">
<path d="M8.85714 1V3.85714L7.42857 4.57143L5.28571 2.42857L2.42857 5.28571L4.57143 7.42857L3.85714 8.85714H1V13.1429H3.85714L4.57143 14.5714L2.42857 16.7143L5.28571 19.5714L7.42857 17.4286L8.85714 18.1429V21H13.1429V18.1429L14.5714 17.4286L16.7143 19.5714L19.5714 16.7143L17.4286 14.5714L18.1429 13.1429H21V8.85714H18.1429L17.4286 7.42857L19.5714 5.28571L16.7143 2.42857L14.5714 4.57143L13.1429 3.85714V1H8.85714Z" stroke="#00598F" stroke-width="1.5" stroke-linecap="round" stroke-linejoin="round"/>
<path d="M10.9997 13.8571C12.5777 13.8571 13.8569 12.5779 13.8569 11C13.8569 9.42201 12.5777 8.14282 10.9997 8.14282C9.42176 8.14282 8.14258 9.42201 8.14258 11C8.14258 12.5779 9.42176 13.8571 10.9997 13.8571Z" stroke="#00598F" stroke-width="1.5" stroke-linecap="round" stroke-linejoin="round"/>
</svg>
